<mxfile host="app.diagrams.net" modified="2020-08-06T15:27:43.019Z" agent="5.0 (Windows NT 10.0; Win64; x64) AppleWebKit/537.36 (KHTML, like Gecko) Chrome/84.0.4147.105 Safari/537.36" etag="PlI_nYDjKnLR1TnfsXIx" version="13.6.0" type="github">
  <diagram id="ZS2d-sbP2Ezk6iZo3oJ7" name="Page-1">
    <mxGraphModel dx="1240" dy="619" grid="1" gridSize="10" guides="1" tooltips="1" connect="1" arrows="1" fold="1" page="1" pageScale="1" pageWidth="850" pageHeight="1100" math="0" shadow="0">
      <root>
        <mxCell id="0" />
        <mxCell id="1" parent="0" />
        <mxCell id="5nwKIdjMEZDx7L5sqmwt-1" value="DepartmentDesignationFinancialInstitutionDAS" style="swimlane;fontStyle=0;childLayout=stackLayout;horizontal=1;startSize=26;fillColor=#e6d0de;horizontalStack=0;resizeParent=1;resizeParentMax=0;resizeLast=0;collapsible=1;marginBottom=0;gradientColor=#d5739d;strokeColor=#996185;" vertex="1" parent="1">
          <mxGeometry x="61" y="140" width="350" height="416" as="geometry" />
        </mxCell>
        <mxCell id="5nwKIdjMEZDx7L5sqmwt-2" value="+ GetAllDepartment(): string" style="text;strokeColor=#82b366;fillColor=#d5e8d4;align=left;verticalAlign=top;spacingLeft=4;spacingRight=4;overflow=hidden;rotatable=0;points=[[0,0.5],[1,0.5]];portConstraint=eastwest;gradientColor=#97d077;" vertex="1" parent="5nwKIdjMEZDx7L5sqmwt-1">
          <mxGeometry y="26" width="350" height="26" as="geometry" />
        </mxCell>
        <mxCell id="5nwKIdjMEZDx7L5sqmwt-5" value="+ GetDepartment(DepartmentBO): string" style="text;strokeColor=#82b366;fillColor=#d5e8d4;align=left;verticalAlign=top;spacingLeft=4;spacingRight=4;overflow=hidden;rotatable=0;points=[[0,0.5],[1,0.5]];portConstraint=eastwest;gradientColor=#97d077;" vertex="1" parent="5nwKIdjMEZDx7L5sqmwt-1">
          <mxGeometry y="52" width="350" height="26" as="geometry" />
        </mxCell>
        <mxCell id="5nwKIdjMEZDx7L5sqmwt-3" value="+ AddDepartment(DepartmentBO): int" style="text;strokeColor=#82b366;fillColor=#d5e8d4;align=left;verticalAlign=top;spacingLeft=4;spacingRight=4;overflow=hidden;rotatable=0;points=[[0,0.5],[1,0.5]];portConstraint=eastwest;gradientColor=#97d077;" vertex="1" parent="5nwKIdjMEZDx7L5sqmwt-1">
          <mxGeometry y="78" width="350" height="26" as="geometry" />
        </mxCell>
        <mxCell id="5nwKIdjMEZDx7L5sqmwt-4" value="+ UpdateDepartment(DepartmentBO): int" style="text;strokeColor=#82b366;fillColor=#d5e8d4;align=left;verticalAlign=top;spacingLeft=4;spacingRight=4;overflow=hidden;rotatable=0;points=[[0,0.5],[1,0.5]];portConstraint=eastwest;gradientColor=#97d077;" vertex="1" parent="5nwKIdjMEZDx7L5sqmwt-1">
          <mxGeometry y="104" width="350" height="26" as="geometry" />
        </mxCell>
        <mxCell id="5nwKIdjMEZDx7L5sqmwt-6" value="+ RemoveDepartment(DepartmentBO): int" style="text;strokeColor=#82b366;fillColor=#d5e8d4;align=left;verticalAlign=top;spacingLeft=4;spacingRight=4;overflow=hidden;rotatable=0;points=[[0,0.5],[1,0.5]];portConstraint=eastwest;gradientColor=#97d077;" vertex="1" parent="5nwKIdjMEZDx7L5sqmwt-1">
          <mxGeometry y="130" width="350" height="26" as="geometry" />
        </mxCell>
        <mxCell id="5nwKIdjMEZDx7L5sqmwt-12" value="+ GetAllDesignation(): string" style="text;strokeColor=#82b366;fillColor=#d5e8d4;align=left;verticalAlign=top;spacingLeft=4;spacingRight=4;overflow=hidden;rotatable=0;points=[[0,0.5],[1,0.5]];portConstraint=eastwest;gradientColor=#97d077;" vertex="1" parent="5nwKIdjMEZDx7L5sqmwt-1">
          <mxGeometry y="156" width="350" height="26" as="geometry" />
        </mxCell>
        <mxCell id="5nwKIdjMEZDx7L5sqmwt-13" value="+ GetDesignation(DesignationBO): string" style="text;strokeColor=#82b366;fillColor=#d5e8d4;align=left;verticalAlign=top;spacingLeft=4;spacingRight=4;overflow=hidden;rotatable=0;points=[[0,0.5],[1,0.5]];portConstraint=eastwest;gradientColor=#97d077;" vertex="1" parent="5nwKIdjMEZDx7L5sqmwt-1">
          <mxGeometry y="182" width="350" height="26" as="geometry" />
        </mxCell>
        <mxCell id="5nwKIdjMEZDx7L5sqmwt-14" value="+ AddDesignation(DesignationBO): int" style="text;strokeColor=#82b366;fillColor=#d5e8d4;align=left;verticalAlign=top;spacingLeft=4;spacingRight=4;overflow=hidden;rotatable=0;points=[[0,0.5],[1,0.5]];portConstraint=eastwest;gradientColor=#97d077;" vertex="1" parent="5nwKIdjMEZDx7L5sqmwt-1">
          <mxGeometry y="208" width="350" height="26" as="geometry" />
        </mxCell>
        <mxCell id="5nwKIdjMEZDx7L5sqmwt-15" value="+ UpdateDesignation(DesignationBO): int" style="text;strokeColor=#82b366;fillColor=#d5e8d4;align=left;verticalAlign=top;spacingLeft=4;spacingRight=4;overflow=hidden;rotatable=0;points=[[0,0.5],[1,0.5]];portConstraint=eastwest;gradientColor=#97d077;" vertex="1" parent="5nwKIdjMEZDx7L5sqmwt-1">
          <mxGeometry y="234" width="350" height="26" as="geometry" />
        </mxCell>
        <mxCell id="5nwKIdjMEZDx7L5sqmwt-16" value="+ RemoveDesignation(DesignationBO): int" style="text;strokeColor=#82b366;fillColor=#d5e8d4;align=left;verticalAlign=top;spacingLeft=4;spacingRight=4;overflow=hidden;rotatable=0;points=[[0,0.5],[1,0.5]];portConstraint=eastwest;gradientColor=#97d077;" vertex="1" parent="5nwKIdjMEZDx7L5sqmwt-1">
          <mxGeometry y="260" width="350" height="26" as="geometry" />
        </mxCell>
        <mxCell id="5nwKIdjMEZDx7L5sqmwt-17" value="+ GetAllFinancialInstitution(): string" style="text;strokeColor=#82b366;fillColor=#d5e8d4;align=left;verticalAlign=top;spacingLeft=4;spacingRight=4;overflow=hidden;rotatable=0;points=[[0,0.5],[1,0.5]];portConstraint=eastwest;gradientColor=#97d077;" vertex="1" parent="5nwKIdjMEZDx7L5sqmwt-1">
          <mxGeometry y="286" width="350" height="26" as="geometry" />
        </mxCell>
        <mxCell id="5nwKIdjMEZDx7L5sqmwt-18" value="+ GetFinancialInstitution(FinancialInstitutionBO): string" style="text;strokeColor=#82b366;fillColor=#d5e8d4;align=left;verticalAlign=top;spacingLeft=4;spacingRight=4;overflow=hidden;rotatable=0;points=[[0,0.5],[1,0.5]];portConstraint=eastwest;gradientColor=#97d077;" vertex="1" parent="5nwKIdjMEZDx7L5sqmwt-1">
          <mxGeometry y="312" width="350" height="26" as="geometry" />
        </mxCell>
        <mxCell id="5nwKIdjMEZDx7L5sqmwt-19" value="+ AddFinancialInstitution(FinancialInstitutionBO): int" style="text;strokeColor=#82b366;fillColor=#d5e8d4;align=left;verticalAlign=top;spacingLeft=4;spacingRight=4;overflow=hidden;rotatable=0;points=[[0,0.5],[1,0.5]];portConstraint=eastwest;gradientColor=#97d077;" vertex="1" parent="5nwKIdjMEZDx7L5sqmwt-1">
          <mxGeometry y="338" width="350" height="26" as="geometry" />
        </mxCell>
        <mxCell id="5nwKIdjMEZDx7L5sqmwt-20" value="+ UpdateFinancialInstitution(FinancialInstitutionBO): int" style="text;strokeColor=#82b366;fillColor=#d5e8d4;align=left;verticalAlign=top;spacingLeft=4;spacingRight=4;overflow=hidden;rotatable=0;points=[[0,0.5],[1,0.5]];portConstraint=eastwest;gradientColor=#97d077;" vertex="1" parent="5nwKIdjMEZDx7L5sqmwt-1">
          <mxGeometry y="364" width="350" height="26" as="geometry" />
        </mxCell>
        <mxCell id="5nwKIdjMEZDx7L5sqmwt-21" value="+ RemoveFinancialInstitution(FinancialInstitutionBO): int" style="text;strokeColor=#82b366;fillColor=#d5e8d4;align=left;verticalAlign=top;spacingLeft=4;spacingRight=4;overflow=hidden;rotatable=0;points=[[0,0.5],[1,0.5]];portConstraint=eastwest;gradientColor=#97d077;" vertex="1" parent="5nwKIdjMEZDx7L5sqmwt-1">
          <mxGeometry y="390" width="350" height="26" as="geometry" />
        </mxCell>
        <mxCell id="5nwKIdjMEZDx7L5sqmwt-22" value="EarningsDeductionsCategoriesDAS" style="swimlane;fontStyle=0;childLayout=stackLayout;horizontal=1;startSize=26;fillColor=#e6d0de;horizontalStack=0;resizeParent=1;resizeParentMax=0;resizeLast=0;collapsible=1;marginBottom=0;gradientColor=#d5739d;strokeColor=#996185;" vertex="1" parent="1">
          <mxGeometry x="440" y="140" width="350" height="546" as="geometry" />
        </mxCell>
        <mxCell id="5nwKIdjMEZDx7L5sqmwt-23" value="+ GetAllEarningDeduction(): string" style="text;strokeColor=#82b366;fillColor=#d5e8d4;align=left;verticalAlign=top;spacingLeft=4;spacingRight=4;overflow=hidden;rotatable=0;points=[[0,0.5],[1,0.5]];portConstraint=eastwest;gradientColor=#97d077;" vertex="1" parent="5nwKIdjMEZDx7L5sqmwt-22">
          <mxGeometry y="26" width="350" height="26" as="geometry" />
        </mxCell>
        <mxCell id="5nwKIdjMEZDx7L5sqmwt-24" value="+ GetEarningDeduction(EarningDeductionBO): string" style="text;strokeColor=#82b366;fillColor=#d5e8d4;align=left;verticalAlign=top;spacingLeft=4;spacingRight=4;overflow=hidden;rotatable=0;points=[[0,0.5],[1,0.5]];portConstraint=eastwest;gradientColor=#97d077;" vertex="1" parent="5nwKIdjMEZDx7L5sqmwt-22">
          <mxGeometry y="52" width="350" height="26" as="geometry" />
        </mxCell>
        <mxCell id="5nwKIdjMEZDx7L5sqmwt-25" value="+ AddEarningDeduction(EarningDeductionBO): int" style="text;strokeColor=#82b366;fillColor=#d5e8d4;align=left;verticalAlign=top;spacingLeft=4;spacingRight=4;overflow=hidden;rotatable=0;points=[[0,0.5],[1,0.5]];portConstraint=eastwest;gradientColor=#97d077;" vertex="1" parent="5nwKIdjMEZDx7L5sqmwt-22">
          <mxGeometry y="78" width="350" height="26" as="geometry" />
        </mxCell>
        <mxCell id="5nwKIdjMEZDx7L5sqmwt-26" value="+ UpdateEarningDeduction(EarningDeductionBO): int" style="text;strokeColor=#82b366;fillColor=#d5e8d4;align=left;verticalAlign=top;spacingLeft=4;spacingRight=4;overflow=hidden;rotatable=0;points=[[0,0.5],[1,0.5]];portConstraint=eastwest;gradientColor=#97d077;" vertex="1" parent="5nwKIdjMEZDx7L5sqmwt-22">
          <mxGeometry y="104" width="350" height="26" as="geometry" />
        </mxCell>
        <mxCell id="5nwKIdjMEZDx7L5sqmwt-27" value="+ RemoveEarningDeduction(EarningDeductionBO): int" style="text;strokeColor=#82b366;fillColor=#d5e8d4;align=left;verticalAlign=top;spacingLeft=4;spacingRight=4;overflow=hidden;rotatable=0;points=[[0,0.5],[1,0.5]];portConstraint=eastwest;gradientColor=#97d077;" vertex="1" parent="5nwKIdjMEZDx7L5sqmwt-22">
          <mxGeometry y="130" width="350" height="26" as="geometry" />
        </mxCell>
        <mxCell id="5nwKIdjMEZDx7L5sqmwt-28" value="+ GetAllCategory(): string" style="text;strokeColor=#82b366;fillColor=#d5e8d4;align=left;verticalAlign=top;spacingLeft=4;spacingRight=4;overflow=hidden;rotatable=0;points=[[0,0.5],[1,0.5]];portConstraint=eastwest;gradientColor=#97d077;" vertex="1" parent="5nwKIdjMEZDx7L5sqmwt-22">
          <mxGeometry y="156" width="350" height="26" as="geometry" />
        </mxCell>
        <mxCell id="5nwKIdjMEZDx7L5sqmwt-29" value="+ GetCategory(CategoryBO): string" style="text;strokeColor=#82b366;fillColor=#d5e8d4;align=left;verticalAlign=top;spacingLeft=4;spacingRight=4;overflow=hidden;rotatable=0;points=[[0,0.5],[1,0.5]];portConstraint=eastwest;gradientColor=#97d077;" vertex="1" parent="5nwKIdjMEZDx7L5sqmwt-22">
          <mxGeometry y="182" width="350" height="26" as="geometry" />
        </mxCell>
        <mxCell id="5nwKIdjMEZDx7L5sqmwt-30" value="+ AddCategory(CategoryBO): int" style="text;strokeColor=#82b366;fillColor=#d5e8d4;align=left;verticalAlign=top;spacingLeft=4;spacingRight=4;overflow=hidden;rotatable=0;points=[[0,0.5],[1,0.5]];portConstraint=eastwest;gradientColor=#97d077;" vertex="1" parent="5nwKIdjMEZDx7L5sqmwt-22">
          <mxGeometry y="208" width="350" height="26" as="geometry" />
        </mxCell>
        <mxCell id="5nwKIdjMEZDx7L5sqmwt-31" value="+ UpdateCategory(CategoryBO): int" style="text;strokeColor=#82b366;fillColor=#d5e8d4;align=left;verticalAlign=top;spacingLeft=4;spacingRight=4;overflow=hidden;rotatable=0;points=[[0,0.5],[1,0.5]];portConstraint=eastwest;gradientColor=#97d077;" vertex="1" parent="5nwKIdjMEZDx7L5sqmwt-22">
          <mxGeometry y="234" width="350" height="26" as="geometry" />
        </mxCell>
        <mxCell id="5nwKIdjMEZDx7L5sqmwt-32" value="+ RemoveCategory(CategoryBO): int" style="text;strokeColor=#82b366;fillColor=#d5e8d4;align=left;verticalAlign=top;spacingLeft=4;spacingRight=4;overflow=hidden;rotatable=0;points=[[0,0.5],[1,0.5]];portConstraint=eastwest;gradientColor=#97d077;" vertex="1" parent="5nwKIdjMEZDx7L5sqmwt-22">
          <mxGeometry y="260" width="350" height="26" as="geometry" />
        </mxCell>
        <mxCell id="5nwKIdjMEZDx7L5sqmwt-38" value="+ GetAllSubCategory(): string" style="text;strokeColor=#82b366;fillColor=#d5e8d4;align=left;verticalAlign=top;spacingLeft=4;spacingRight=4;overflow=hidden;rotatable=0;points=[[0,0.5],[1,0.5]];portConstraint=eastwest;gradientColor=#97d077;" vertex="1" parent="5nwKIdjMEZDx7L5sqmwt-22">
          <mxGeometry y="286" width="350" height="26" as="geometry" />
        </mxCell>
        <mxCell id="5nwKIdjMEZDx7L5sqmwt-39" value="+ GetSubCategory(SubCategoryBO): string" style="text;strokeColor=#82b366;fillColor=#d5e8d4;align=left;verticalAlign=top;spacingLeft=4;spacingRight=4;overflow=hidden;rotatable=0;points=[[0,0.5],[1,0.5]];portConstraint=eastwest;gradientColor=#97d077;" vertex="1" parent="5nwKIdjMEZDx7L5sqmwt-22">
          <mxGeometry y="312" width="350" height="26" as="geometry" />
        </mxCell>
        <mxCell id="5nwKIdjMEZDx7L5sqmwt-40" value="+ AddSubCategory(SubCategoryBO): int" style="text;strokeColor=#82b366;fillColor=#d5e8d4;align=left;verticalAlign=top;spacingLeft=4;spacingRight=4;overflow=hidden;rotatable=0;points=[[0,0.5],[1,0.5]];portConstraint=eastwest;gradientColor=#97d077;" vertex="1" parent="5nwKIdjMEZDx7L5sqmwt-22">
          <mxGeometry y="338" width="350" height="26" as="geometry" />
        </mxCell>
        <mxCell id="5nwKIdjMEZDx7L5sqmwt-41" value="+ UpdateSubCategory(SubCategoryBO): int" style="text;strokeColor=#82b366;fillColor=#d5e8d4;align=left;verticalAlign=top;spacingLeft=4;spacingRight=4;overflow=hidden;rotatable=0;points=[[0,0.5],[1,0.5]];portConstraint=eastwest;gradientColor=#97d077;" vertex="1" parent="5nwKIdjMEZDx7L5sqmwt-22">
          <mxGeometry y="364" width="350" height="26" as="geometry" />
        </mxCell>
        <mxCell id="5nwKIdjMEZDx7L5sqmwt-42" value="+ RemoveSubCategory(SubCategoryBOBO): int" style="text;strokeColor=#82b366;fillColor=#d5e8d4;align=left;verticalAlign=top;spacingLeft=4;spacingRight=4;overflow=hidden;rotatable=0;points=[[0,0.5],[1,0.5]];portConstraint=eastwest;gradientColor=#97d077;" vertex="1" parent="5nwKIdjMEZDx7L5sqmwt-22">
          <mxGeometry y="390" width="350" height="26" as="geometry" />
        </mxCell>
        <mxCell id="5nwKIdjMEZDx7L5sqmwt-33" value="+ GetAllPayScale(): string" style="text;strokeColor=#82b366;fillColor=#d5e8d4;align=left;verticalAlign=top;spacingLeft=4;spacingRight=4;overflow=hidden;rotatable=0;points=[[0,0.5],[1,0.5]];portConstraint=eastwest;gradientColor=#97d077;" vertex="1" parent="5nwKIdjMEZDx7L5sqmwt-22">
          <mxGeometry y="416" width="350" height="26" as="geometry" />
        </mxCell>
        <mxCell id="5nwKIdjMEZDx7L5sqmwt-34" value="+ GetPayScale(PayScaleBO): string" style="text;strokeColor=#82b366;fillColor=#d5e8d4;align=left;verticalAlign=top;spacingLeft=4;spacingRight=4;overflow=hidden;rotatable=0;points=[[0,0.5],[1,0.5]];portConstraint=eastwest;gradientColor=#97d077;" vertex="1" parent="5nwKIdjMEZDx7L5sqmwt-22">
          <mxGeometry y="442" width="350" height="26" as="geometry" />
        </mxCell>
        <mxCell id="5nwKIdjMEZDx7L5sqmwt-35" value="+ AddPayScale(PayScaleBO): int" style="text;strokeColor=#82b366;fillColor=#d5e8d4;align=left;verticalAlign=top;spacingLeft=4;spacingRight=4;overflow=hidden;rotatable=0;points=[[0,0.5],[1,0.5]];portConstraint=eastwest;gradientColor=#97d077;" vertex="1" parent="5nwKIdjMEZDx7L5sqmwt-22">
          <mxGeometry y="468" width="350" height="26" as="geometry" />
        </mxCell>
        <mxCell id="5nwKIdjMEZDx7L5sqmwt-36" value="+ UpdatePayScale(PayScaleBO): int" style="text;strokeColor=#82b366;fillColor=#d5e8d4;align=left;verticalAlign=top;spacingLeft=4;spacingRight=4;overflow=hidden;rotatable=0;points=[[0,0.5],[1,0.5]];portConstraint=eastwest;gradientColor=#97d077;" vertex="1" parent="5nwKIdjMEZDx7L5sqmwt-22">
          <mxGeometry y="494" width="350" height="26" as="geometry" />
        </mxCell>
        <mxCell id="5nwKIdjMEZDx7L5sqmwt-37" value="+ RemovePayScale(PayScaleBO): int" style="text;strokeColor=#82b366;fillColor=#d5e8d4;align=left;verticalAlign=top;spacingLeft=4;spacingRight=4;overflow=hidden;rotatable=0;points=[[0,0.5],[1,0.5]];portConstraint=eastwest;gradientColor=#97d077;" vertex="1" parent="5nwKIdjMEZDx7L5sqmwt-22">
          <mxGeometry y="520" width="350" height="26" as="geometry" />
        </mxCell>
        <mxCell id="5nwKIdjMEZDx7L5sqmwt-43" value="EmployeeSalaryTransactionDAS" style="swimlane;fontStyle=0;childLayout=stackLayout;horizontal=1;startSize=26;fillColor=#e6d0de;horizontalStack=0;resizeParent=1;resizeParentMax=0;resizeLast=0;collapsible=1;marginBottom=0;gradientColor=#d5739d;strokeColor=#996185;" vertex="1" parent="1">
          <mxGeometry x="61" y="580" width="350" height="286" as="geometry" />
        </mxCell>
        <mxCell id="5nwKIdjMEZDx7L5sqmwt-44" value="+ GetAllEmployee(EmployeeItemBO): string" style="text;strokeColor=#82b366;fillColor=#d5e8d4;align=left;verticalAlign=top;spacingLeft=4;spacingRight=4;overflow=hidden;rotatable=0;points=[[0,0.5],[1,0.5]];portConstraint=eastwest;gradientColor=#97d077;" vertex="1" parent="5nwKIdjMEZDx7L5sqmwt-43">
          <mxGeometry y="26" width="350" height="26" as="geometry" />
        </mxCell>
        <mxCell id="5nwKIdjMEZDx7L5sqmwt-45" value="+ GetEmployee(EmployeeBO): string" style="text;strokeColor=#82b366;fillColor=#d5e8d4;align=left;verticalAlign=top;spacingLeft=4;spacingRight=4;overflow=hidden;rotatable=0;points=[[0,0.5],[1,0.5]];portConstraint=eastwest;gradientColor=#97d077;" vertex="1" parent="5nwKIdjMEZDx7L5sqmwt-43">
          <mxGeometry y="52" width="350" height="26" as="geometry" />
        </mxCell>
        <mxCell id="5nwKIdjMEZDx7L5sqmwt-46" value="+ AddEmployee(EmployeeBO): int" style="text;strokeColor=#82b366;fillColor=#d5e8d4;align=left;verticalAlign=top;spacingLeft=4;spacingRight=4;overflow=hidden;rotatable=0;points=[[0,0.5],[1,0.5]];portConstraint=eastwest;gradientColor=#97d077;" vertex="1" parent="5nwKIdjMEZDx7L5sqmwt-43">
          <mxGeometry y="78" width="350" height="26" as="geometry" />
        </mxCell>
        <mxCell id="5nwKIdjMEZDx7L5sqmwt-47" value="+ UpdateEmployee(EmployeeBO): int" style="text;strokeColor=#82b366;fillColor=#d5e8d4;align=left;verticalAlign=top;spacingLeft=4;spacingRight=4;overflow=hidden;rotatable=0;points=[[0,0.5],[1,0.5]];portConstraint=eastwest;gradientColor=#97d077;" vertex="1" parent="5nwKIdjMEZDx7L5sqmwt-43">
          <mxGeometry y="104" width="350" height="26" as="geometry" />
        </mxCell>
        <mxCell id="5nwKIdjMEZDx7L5sqmwt-48" value="+ RemoveEmployee(EmployeeBO): int" style="text;strokeColor=#82b366;fillColor=#d5e8d4;align=left;verticalAlign=top;spacingLeft=4;spacingRight=4;overflow=hidden;rotatable=0;points=[[0,0.5],[1,0.5]];portConstraint=eastwest;gradientColor=#97d077;" vertex="1" parent="5nwKIdjMEZDx7L5sqmwt-43">
          <mxGeometry y="130" width="350" height="26" as="geometry" />
        </mxCell>
        <mxCell id="5nwKIdjMEZDx7L5sqmwt-49" value="+ GetAllTransaction(TransactionBO): string" style="text;strokeColor=#82b366;fillColor=#d5e8d4;align=left;verticalAlign=top;spacingLeft=4;spacingRight=4;overflow=hidden;rotatable=0;points=[[0,0.5],[1,0.5]];portConstraint=eastwest;gradientColor=#97d077;" vertex="1" parent="5nwKIdjMEZDx7L5sqmwt-43">
          <mxGeometry y="156" width="350" height="26" as="geometry" />
        </mxCell>
        <mxCell id="5nwKIdjMEZDx7L5sqmwt-50" value="+ GetTransaction(TransactionBO): string" style="text;strokeColor=#82b366;fillColor=#d5e8d4;align=left;verticalAlign=top;spacingLeft=4;spacingRight=4;overflow=hidden;rotatable=0;points=[[0,0.5],[1,0.5]];portConstraint=eastwest;gradientColor=#97d077;" vertex="1" parent="5nwKIdjMEZDx7L5sqmwt-43">
          <mxGeometry y="182" width="350" height="26" as="geometry" />
        </mxCell>
        <mxCell id="5nwKIdjMEZDx7L5sqmwt-51" value="+ AddTransaction(TransactionBO): int" style="text;strokeColor=#82b366;fillColor=#d5e8d4;align=left;verticalAlign=top;spacingLeft=4;spacingRight=4;overflow=hidden;rotatable=0;points=[[0,0.5],[1,0.5]];portConstraint=eastwest;gradientColor=#97d077;" vertex="1" parent="5nwKIdjMEZDx7L5sqmwt-43">
          <mxGeometry y="208" width="350" height="26" as="geometry" />
        </mxCell>
        <mxCell id="5nwKIdjMEZDx7L5sqmwt-52" value="+ UpdateTransaction(TransactionBO): int" style="text;strokeColor=#82b366;fillColor=#d5e8d4;align=left;verticalAlign=top;spacingLeft=4;spacingRight=4;overflow=hidden;rotatable=0;points=[[0,0.5],[1,0.5]];portConstraint=eastwest;gradientColor=#97d077;" vertex="1" parent="5nwKIdjMEZDx7L5sqmwt-43">
          <mxGeometry y="234" width="350" height="26" as="geometry" />
        </mxCell>
        <mxCell id="5nwKIdjMEZDx7L5sqmwt-53" value="+ RemoveTransaction(TransactionBO): int" style="text;strokeColor=#82b366;fillColor=#d5e8d4;align=left;verticalAlign=top;spacingLeft=4;spacingRight=4;overflow=hidden;rotatable=0;points=[[0,0.5],[1,0.5]];portConstraint=eastwest;gradientColor=#97d077;" vertex="1" parent="5nwKIdjMEZDx7L5sqmwt-43">
          <mxGeometry y="260" width="350" height="26" as="geometry" />
        </mxCell>
        <mxCell id="5nwKIdjMEZDx7L5sqmwt-59" value="&lt;font style=&quot;font-size: 29px&quot;&gt;&lt;u&gt;Data Access Service Objects&lt;/u&gt;&lt;/font&gt;&lt;br&gt;&lt;font style=&quot;font-size: 23px&quot; color=&quot;#808080&quot;&gt;Class Diagrams&lt;/font&gt;" style="text;strokeColor=none;fillColor=none;html=1;fontSize=24;fontStyle=1;verticalAlign=middle;align=center;" vertex="1" parent="1">
          <mxGeometry x="253" y="40" width="345" height="60" as="geometry" />
        </mxCell>
      </root>
    </mxGraphModel>
  </diagram>
</mxfile>
